<svg xmlns="http://www.w3.org/2000/svg" width="74" height="24" viewBox="0 0 74 24"><g transform="translate(-1074 -4181)"><rect width="74" height="24" rx="4" transform="translate(1074 4181)" fill="#f07c00"/><path d="M13.94,6.526c.01.138.01.276.01.414A9,9,0,0,1,4.89,16,9,9,0,0,1,0,14.57a6.588,6.588,0,0,0,.769.039,6.377,6.377,0,0,0,3.953-1.36,3.19,3.19,0,0,1-2.977-2.208,4.016,4.016,0,0,0,.6.049,3.368,3.368,0,0,0,.838-.108A3.185,3.185,0,0,1,.631,7.856V7.817a3.207,3.207,0,0,0,1.439.4,3.189,3.189,0,0,1-.986-4.259A9.051,9.051,0,0,0,7.65,7.294a3.6,3.6,0,0,1-.079-.729,3.187,3.187,0,0,1,5.511-2.179A6.269,6.269,0,0,0,15.1,3.617a3.176,3.176,0,0,1-1.4,1.755,6.383,6.383,0,0,0,1.834-.493,6.845,6.845,0,0,1-1.6,1.646Z" transform="translate(1080.849 4183.248)" fill="#fff"/><text transform="translate(1120 4197)" fill="#fff" font-size="12" font-family="Roboto-Bold, Roboto" font-weight="700"><tspan x="-19.061" y="0">Twitter</tspan></text></g></svg>