<svg xmlns="http://www.w3.org/2000/svg" width="10.987" height="20.933" viewBox="0 0 10.987 20.933"><g transform="translate(10.987 15) rotate(90)"><g transform="translate(0 0)"><path d="M5.808,5.192.727.124a.426.426,0,0,0-.6.6L4.9,5.493.125,10.259a.426.426,0,0,0,.6.6L5.808,5.795a.426.426,0,0,0,0-.6Z" fill="#f07c00"/></g></g><g transform="translate(0 5.934) rotate(-90)"><g transform="translate(0 0)"><path d="M5.808,5.192.727.124a.426.426,0,0,0-.6.6L4.9,5.493.125,10.259a.426.426,0,0,0,.6.6L5.808,5.795a.426.426,0,0,0,0-.6Z" transform="translate(0 0)" fill="#f07c00"/></g></g></svg>