<svg xmlns="http://www.w3.org/2000/svg" width="61" height="24" viewBox="0 0 61 24"><g transform="translate(-1000 -4181)"><rect width="61" height="24" rx="4" transform="translate(1000 4181)" fill="#f07c00"/><text transform="translate(1040 4197)" fill="#fff" font-size="12" font-family="Roboto-Bold, Roboto" font-weight="700"><tspan x="-11.288" y="0">Like</tspan></text><g transform="translate(1007.543 4186.263)"><g transform="translate(0 0)"><path d="M2992.1,1248.364l1.979-2.384-.233-2c-.223-1.961,5.125-1.58,3.34,3.454l3.572-.044a2.281,2.281,0,0,1,1.116.72,1.1,1.1,0,0,1-.11,1.517,2.247,2.247,0,0,1-.465.366c.834.679.529,1.349-.26,1.875.583.629.55,1.286-.187,1.72.651.779-.33,1.531-.949,1.883a.387.387,0,0,1-.229.052l-7.246-.025a.4.4,0,0,1-.4-.395l-.03-6.479A.4.4,0,0,1,2992.1,1248.364Z" transform="translate(-2988.642 -1242.882)" fill="#fff"/><path d="M1000.4,4414h2.075a.4.4,0,0,1,.4.4v6.523a.4.4,0,0,1-.4.4H1000.4a.4.4,0,0,1-.4-.4V4414.4A.4.4,0,0,1,1000.4,4414Z" transform="translate(-1000 -4408.653)" fill="#fff"/></g></g></g></svg>