<svg xmlns="http://www.w3.org/2000/svg" viewBox="0 0 144.39 106.49"><defs><style>.cls-1{fill:#ffffff;}.cls-2{fill:#ffffff;}.cls-3{fill:#ffffff;}</style></defs><title>Asset 4</title><g id="Layer_2" data-name="Layer 2"><g id="Layer_1-2" data-name="Layer 1"><path class="cls-1" d="M17.66,106.49V98.88a9.24,9.24,0,0,1,.25-2.4A4.65,4.65,0,0,1,22.26,93a5.61,5.61,0,0,1,3.61.88,5.07,5.07,0,0,1,1.36,6.85,4.81,4.81,0,0,1-5.37,1.79.38.38,0,0,1-.33-.43q0-1.06,0-2.13c0-.27.09-.33.35-.25a2.85,2.85,0,0,0,1.56.08,1.77,1.77,0,0,0,1.48-1.86,2,2,0,0,0-1.67-2c-1.51-.2-2.45.71-2.46,2.4,0,2.5,0,5,0,7.5,0,.23,0,.46,0,.69Z"/><path class="cls-1" d="M144.39,102.52c-.92,0-1.83,0-2.75,0-.34,0-.35-.2-.35-.45v-3.5a5.22,5.22,0,0,0-.09-1.18,1.93,1.93,0,0,0-2.34-1.51,2,2,0,0,0,.29,3.94,4.11,4.11,0,0,0,1.1-.15c.23-.06.33,0,.33.25,0,.73,0,1.45,0,2.17a.35.35,0,0,1-.26.37,4.75,4.75,0,0,1-6.22-3.85,5.31,5.31,0,0,1,8.9-4.26,4.76,4.76,0,0,1,1.25,2.36c0,.18.09.35.14.52Z"/><path class="cls-2" d="M105,81h-.25c-4.16,0-8.32.12-12.48.06q-4.12,0-8.26-.14c-2.09,0-4.18-.13-6.27-.21-2.43-.11-4.87-.23-7.3-.37q-3.24-.18-6.48-.43-3.91-.3-7.82-.68c-3.22-.32-6.43-.68-9.63-1.11a156.54,156.54,0,0,1-17.47-3.23A50.9,50.9,0,0,1,20.36,72a13.22,13.22,0,0,1-4.21-2.75,3,3,0,0,1,0-4.51A11.14,11.14,0,0,1,19,62.66a41.51,41.51,0,0,1,8.47-3.15,132.08,132.08,0,0,1,15.4-3.12c2.79-.42,5.59-.8,8.4-1.12q3.28-.37,6.59-.67c2.47-.23,4.93-.44,7.4-.63,1.7-.13,3.4-.2,5.11-.32,2.68-.18,5.37-.26,8.06-.41.62,0,1.25,0,1.87-.06.82,0,1.64,0,2.45-.08,6.76-.19,13.52-.19,20.28-.15h2v.12l-.21,0c-1.67,0-3.34.07-5,.16-2.55.14-5.11.28-7.66.47-2.11.16-4.22.33-6.32.54q-3.47.36-6.91.82c-3.26.45-6.51,1-9.74,1.62a69,69,0,0,0-14.29,4.21,15.18,15.18,0,0,0-5.16,3.37,3.84,3.84,0,0,0-1.18,3,4.27,4.27,0,0,0,1.32,2.55,13.8,13.8,0,0,0,3.71,2.58,46.26,46.26,0,0,0,8.83,3.24,121.64,121.64,0,0,0,14.16,2.88q3.42.51,6.86.9c2.12.24,4.25.43,6.38.62,2.61.22,5.23.37,7.84.54,1.25.08,2.5.09,3.74.17A34.18,34.18,0,0,1,105,81Z"/><path class="cls-3" d="M94.14,68l1.11-.89c1.25-1,2.5-1.95,3.75-2.94a5.34,5.34,0,0,0,.65-.61,1.38,1.38,0,0,0-.2-2.09A2.9,2.9,0,0,0,97.68,61c-2.13,0-4.26,0-6.39,0-.29,0-.37.11-.37.38q0,7.4,0,14.79a1,1,0,0,0,.34.73c.09.08.19.17.14.31s-.21.1-.32.1H87.94c-.11,0-.26,0-.31-.11s.06-.2.14-.27a1.09,1.09,0,0,0,.32-.88V59.64a1,1,0,0,0-.33-.87c-.09-.07-.2-.17-.13-.3s.2-.11.32-.11c3.45,0,6.9,0,10.36,0a4.8,4.8,0,0,1,4.77,3.68.52.52,0,0,1-.22.66c-1.34,1-2.66,1.95-4,2.93l-.29.24c.06.12.15.1.23.12a8.33,8.33,0,0,1,6.27,5.46,12.1,12.1,0,0,1,.79,4.88,2.46,2.46,0,0,0,.08.75l1.44-2.35,10.17-16.66c.21-.35.25-.35.47,0l10.08,16.63c.45.74.9,1.47,1.34,2.22.18.29.15.34-.2.34h-3.32c-.12,0-.3.06-.34-.1s.16-.13.25-.19c.25-.13.3-.39.1-.72-.32-.55-.66-1.09-1-1.63-.93-1.52-1.86-3-2.77-4.56a.57.57,0,0,0-.55-.31c-1.86,0-3.71,0-5.56,0a1,1,0,0,0-.79.27c-.06.07-.15.15-.25.07s0-.17,0-.25c.48-.85,1-1.68,1.46-2.53a.52.52,0,0,1,.53-.23h2.88c.11,0,.25,0,.31,0s0-.22-.11-.32L118,63.22c-.2-.32-.21-.32-.41,0l-4.7,7.58-3.3,5.33a1.86,1.86,0,0,0-.11.19c-.17.35-.1.55.27.7.08,0,.18,0,.16.15s-.12.09-.2.1h-6.93c-.23,0-.3-.17-.13-.3.51-.38.46-.91.45-1.44A7.49,7.49,0,0,0,99.57,69,6.11,6.11,0,0,0,96.49,68a11.13,11.13,0,0,0-2.08.06A.24.24,0,0,1,94.14,68Z"/><path class="cls-2" d="M18.68,34.81l1.87.32,17.5,3.08,12.14,2.14c.49.09.49.11.23.53a21.26,21.26,0,0,0-3.17,9c-.06.51-.08.52-.53.28L32.46,42.44,22.23,36.87l-3.36-1.82C18.8,35,18.7,35,18.68,34.81Z"/><path class="cls-2" d="M35.1,11.39a3.1,3.1,0,0,1,.84.65l6.61,5.85,7.24,6.4,6,5.29c1.12,1,2.22,2,3.35,3,.26.22.21.31-.05.44a21.71,21.71,0,0,0-4.74,3.26,20.78,20.78,0,0,0-2.73,3c-.28.36-.28.36-.52-.05L40.74,21.22l-5.4-9.38C35.27,11.72,35.21,11.6,35.1,11.39Z"/><path class="cls-2" d="M62.43,0a5.28,5.28,0,0,1,.31,1q4.18,14.64,8.38,29.29c.12.44.12.46-.32.42a22.08,22.08,0,0,0-7.68.73c-.62.17-1.24.4-1.85.6-.34.11-.39.08-.37-.26.07-1.38.13-2.76.2-4.14.11-2.42.23-4.85.34-7.27.06-1.13.1-2.26.15-3.38L62,9.2c.06-1.26.1-2.52.16-3.78.07-1.73.15-3.46.22-5.19C62.34.15,62.31.06,62.43,0Z"/><path class="cls-2" d="M92.83,5.65c-.14.46-.28.91-.43,1.37L86.69,24.49q-1.75,5.32-3.49,10.66a1.52,1.52,0,0,0-.06.2c-.07.28-.19.28-.4.11a20.15,20.15,0,0,0-2.6-1.81,21.4,21.4,0,0,0-5.92-2.42c-.45-.11-.45-.12-.18-.49L86.92,13.45l5.66-7.61a1.92,1.92,0,0,1,.18-.22Z"/><path class="cls-2" d="M114.37,26.5l-2.32,1.88L97.54,40.09l-7.23,5.85c-.32.25-.36.24-.48-.13a21.84,21.84,0,0,0-4.78-8.19c-.24-.26-.1-.32.13-.41l9-3.34,15.08-5.59,4.7-1.75.33-.1Z"/><path class="cls-3" d="M79.69,58.36h4.87c.44,0,.46,0,.26.41L83.37,61.4c-.05.09-.08.23-.21.21s-.08-.17-.09-.27a.38.38,0,0,0-.35-.35,1.41,1.41,0,0,0-.29,0H75.22a11.06,11.06,0,0,0-2.15.24A5.33,5.33,0,0,0,69.48,64a7.79,7.79,0,0,0-.29,7.25,5.48,5.48,0,0,0,5.06,3.37c3.18.17,6.35,0,9.53.07a1,1,0,0,0,.72-.27l.39-.32c.08-.06.17-.13.26,0s0,.18,0,.26c-.32.59-.64,1.18-1,1.77l-.54,1a.41.41,0,0,1-.42.26c-3,0-5.9,0-8.84,0a8.67,8.67,0,0,1-8.72-7.65,10.23,10.23,0,0,1,1.37-7,8.42,8.42,0,0,1,5.85-4.08,14.15,14.15,0,0,1,2.26-.16c1.53,0,3,0,4.58,0Z"/><path class="cls-1" d="M110.82,97.8c0-1.37,0-2.74,0-4.11a4.75,4.75,0,0,1,1.42-3.48,4.92,4.92,0,0,1,7.11.66,5,5,0,0,1,.86,2.9c0,2.78,0,5.55,0,8.33,0,.32-.1.45-.43.44-.86,0-1.71,0-2.56,0-.32,0-.43-.11-.42-.42,0-1.2,0-2.4,0-3.61,0-.36-.11-.49-.48-.46s-.69,0-1,0-.38-.07-.38-.35q0-1.24,0-2.49c0-.25.11-.34.35-.34s.77,0,1.15,0,.41-.12.39-.41a5.93,5.93,0,0,0-.08-1.26,1.16,1.16,0,0,0-1.18-1,1.19,1.19,0,0,0-1.24.9,3.39,3.39,0,0,0-.09,1V102c0,.56,0,.56-.56.56h-2.28c-.56,0-.56,0-.56-.59V97.8Z"/><path class="cls-1" d="M75,95.65s0,.07.07.07a2.48,2.48,0,0,1,1.86,2.67c0,1.25,0,2.5,0,3.75,0,.29-.1.41-.4.4-.87,0-1.73,0-2.6,0-.32,0-.42-.11-.41-.42,0-1,0-2,0-2.92a4.72,4.72,0,0,0,0-.65.94.94,0,0,0-1-.92c-.72,0-.65,0-.65-.7s0-1.37,0-2.05c0-.33.1-.46.43-.45a.94.94,0,0,0,.95-.59,1.14,1.14,0,0,0-.09-1.14,1.14,1.14,0,0,0-1.91.15,2.62,2.62,0,0,0-.14,1.07q0,3.93,0,7.86c0,.1,0,.21,0,.32,0,.32-.09.45-.43.44-.85,0-1.69,0-2.53,0-.35,0-.46-.11-.46-.45,0-2.8,0-5.6,0-8.4a6.33,6.33,0,0,1,.13-1.15A4.27,4.27,0,0,1,72,89a5.63,5.63,0,0,1,2.47.39,3.85,3.85,0,0,1,2.13,4.49A2.54,2.54,0,0,1,75,95.65Z"/><path class="cls-1" d="M5.84,97.34H4c-.37,0-.4.07-.22.4a3,3,0,0,0,2.34,1.44,7.61,7.61,0,0,0,1.51.08c.28,0,.41.08.41.39,0,.84,0,1.68,0,2.52,0,.2,0,.36-.28.37A11.26,11.26,0,0,1,4,102.15,5.59,5.59,0,0,1,.22,97.73a7.48,7.48,0,0,1,1.05-6,5.64,5.64,0,0,1,4.4-2.46c.66-.06,1.32-.06,2-.07.32,0,.42.11.42.42,0,.81,0,1.61,0,2.42,0,.35-.13.45-.47.44a6.33,6.33,0,0,0-2,.22A2.7,2.7,0,0,0,3.86,93.9c-.07.12-.2.24-.12.39s.24.07.37.07c1.16,0,2.33,0,3.5,0,.33,0,.47.1.46.46,0,.69,0,1.39,0,2.09,0,.35-.13.46-.47.44C7,97.32,6.43,97.34,5.84,97.34Z"/><path class="cls-1" d="M100,99.87c0,.86,0,1.56,0,2.26,0,.32-.11.42-.42.41-.75,0-1.49,0-2.24,0-.36,0-.48-.1-.48-.47,0-1.27,0-2.54,0-3.82a3.35,3.35,0,0,0-.12-.89A2,2,0,0,0,94.4,95.9a2,2,0,0,0-1.6,2.2,2,2,0,0,0,2,1.74,4.32,4.32,0,0,0,1.07-.15c.23-.06.34,0,.33.25v2.16a.35.35,0,0,1-.26.37,4.69,4.69,0,0,1-6.25-4.32A5,5,0,0,1,94.78,93a5.07,5.07,0,0,1,3.46,1.09A4.94,4.94,0,0,1,100,97.34,22.21,22.21,0,0,1,100,99.87Z"/><path class="cls-1" d="M38.64,93a4.94,4.94,0,0,1,5.11,4.24,4.54,4.54,0,0,1-1.91,4.48,5.31,5.31,0,0,1-7.16-.83,4.83,4.83,0,0,1,3.06-7.82A3.62,3.62,0,0,1,38.64,93Zm2,4.89a2,2,0,1,0-2,2A2,2,0,0,0,40.68,97.87Z"/><path class="cls-1" d="M78.39,98a4.73,4.73,0,0,1,4-4.93,5.14,5.14,0,0,1,4.79,1.47,5.39,5.39,0,0,1,1,1.56.33.33,0,0,1-.16.5q-2.27,1.3-4.52,2.62c-.25.15-.4.13-.53-.15a12.6,12.6,0,0,0-.64-1.13c-.12-.2-.1-.31.11-.43.7-.4,1.38-.83,2.08-1.23.28-.16.23-.26,0-.42a2,2,0,0,0-3,1.33,2.31,2.31,0,0,0,3,2.68,3.07,3.07,0,0,0,1.8-1.35c.15-.23.26-.28.47-.07.47.46,1,.91,1.44,1.35.15.14.19.25.07.43a5.72,5.72,0,0,1-8.23,1.3A4.86,4.86,0,0,1,78.39,98Z"/><path class="cls-1" d="M56.42,93a5,5,0,0,1,4.77,3.12c.12.25.07.38-.17.51q-2.28,1.31-4.56,2.64c-.22.13-.34.08-.45-.13-.21-.39-.43-.78-.66-1.16-.13-.22-.08-.34.13-.46.68-.39,1.34-.8,2-1.2.31-.19.31-.27,0-.46a2,2,0,0,0-3,1.51,2.15,2.15,0,0,0,1.11,2.31,2.61,2.61,0,0,0,2.89-.27,3.12,3.12,0,0,0,.85-.92c.11-.19.22-.21.39,0,.49.47,1,.93,1.51,1.39.19.17.12.3,0,.46a5.76,5.76,0,0,1-3.88,2.4,5.27,5.27,0,0,1-4.46-1.28,4.82,4.82,0,0,1,1.48-8A5.51,5.51,0,0,1,56.42,93Z"/><path class="cls-1" d="M12.76,101.08c-.81,1.32-2.1,1.47-3.47,1.46-.27,0-.36-.11-.36-.36,0-.69,0-1.37,0-2.06,0-.32.1-.43.43-.44a1.83,1.83,0,0,0,1.86-1.46,1.74,1.74,0,0,0-1.57-2.17c-.74-.06-.72.06-.72-.8V93.52c0-.19,0-.38.28-.37a4.63,4.63,0,0,1,2.76.66,2.91,2.91,0,0,1,.66.65c.11.15.19.15.3,0a3.9,3.9,0,0,1,3.36-1.32c.22,0,.32.1.32.33,0,.73,0,1.47,0,2.2,0,.24-.09.35-.33.36a2.78,2.78,0,0,0-.58,0,1.76,1.76,0,0,0-1.41,1.8,1.87,1.87,0,0,0,1.79,1.8c.59,0,.52.08.52.59s0,1.25,0,1.88c0,.27-.08.39-.37.39a6.25,6.25,0,0,1-1.72-.18C13.87,102.18,13.74,102.09,12.76,101.08Z"/><path class="cls-1" d="M123.82,102.54c-.68,0-1.23,0-1.79,0-.28,0-.38-.11-.38-.38,0-.66,0-1.32,0-2,0-.28.09-.4.37-.4.8,0,1.59,0,2.38,0,.27,0,.62.09.71-.26s-.24-.46-.48-.58a12.74,12.74,0,0,1-1.75-.93,2.71,2.71,0,0,1-1-3,2.58,2.58,0,0,1,2.36-1.86c1.07-.1,2.14,0,3.21-.06.26,0,.37.1.36.36,0,.68,0,1.35,0,2,0,.29-.11.38-.38.38q-1,0-1.92,0a1.46,1.46,0,0,0-.42,0,.32.32,0,0,0-.17.56,1.5,1.5,0,0,0,.52.37c.52.27,1.08.47,1.58.79a2.32,2.32,0,0,1,1.17,2.8,2.51,2.51,0,0,1-2.26,2A19.35,19.35,0,0,1,123.82,102.54Z"/><path class="cls-1" d="M32.38,95.85v6.2c0,.47,0,.49-.48.49-.75,0-1.49,0-2.24,0-.29,0-.4-.09-.4-.39V89.56c0-.3.1-.41.39-.4.77,0,1.54,0,2.31,0,.35,0,.43.14.43.46Q32.38,92.73,32.38,95.85Z"/><path class="cls-1" d="M104.57,95.87V102c0,.49,0,.5-.51.5h-2.13c-.47,0-.48,0-.48-.49,0-3,0-6.08,0-9.13,0-1.09,0-2.18,0-3.28,0-.46,0-.48.49-.48.73,0,1.47,0,2.2,0,.33,0,.44.11.43.43C104.56,91.69,104.57,93.78,104.57,95.87Z"/><path class="cls-1" d="M47.76,94.15A2.54,2.54,0,0,1,50,93.06c.3,0,.41.1.41.39,0,.72,0,1.45,0,2.17,0,.28-.1.42-.4.4-1.39-.08-2,.53-1.91,2,0,1.3,0,2.61,0,3.92,0,.61,0,.61-.62.61s-1.42,0-2.13,0c-.28,0-.38-.1-.38-.38q0-4.32,0-8.65c0-.28.12-.38.38-.37q1,0,2,0c.33,0,.46.12.44.44A5.42,5.42,0,0,0,47.76,94.15Z"/><path class="cls-3" d="M76.73,65.58h6.06c.5,0,.52,0,.28.46-.45.86-.91,1.72-1.37,2.58,0,.1-.08.26-.23.24s-.09-.17-.11-.27a.35.35,0,0,0-.36-.33H69.42c-.22,0-.31-.06-.21-.3.32-.71.64-1.42,1-2.14.1-.25.3-.23.51-.23h6.06Z"/><path class="cls-1" d="M132.7,97.83c0,1.42,0,2.83,0,4.25,0,.34-.1.47-.45.46-.77,0-1.54,0-2.31,0-.28,0-.38-.1-.38-.38q0-4.32,0-8.65c0-.28.12-.38.39-.37.77,0,1.54,0,2.3,0,.33,0,.45.11.45.44C132.69,95,132.7,96.41,132.7,97.83Z"/><path class="cls-1" d="M131.14,88.94a1.76,1.76,0,0,1,1.76,1.78,1.8,1.8,0,0,1-1.78,1.76,1.77,1.77,0,1,1,0-3.54Z"/></g></g></svg>